<?xml version="1.0" standalone="no"?><!DOCTYPE svg PUBLIC "-//W3C//DTD SVG 1.1//EN" "http://www.w3.org/Graphics/SVG/1.1/DTD/svg11.dtd"><svg t="1628277694449" class="icon" viewBox="0 0 1024 1024" version="1.1" xmlns="http://www.w3.org/2000/svg" p-id="9482" xmlns:xlink="http://www.w3.org/1999/xlink" width="32" height="32"><defs><style type="text/css"></style></defs><path d="M507.53024 508.88192m-494.24384 0a494.24384 494.24384 0 1 0 988.48768 0 494.24384 494.24384 0 1 0-988.48768 0Z" fill="#3B0025" p-id="9483"></path><path d="M507.53024 508.88192m-429.62432 0a429.62432 429.62432 0 1 0 859.24864 0 429.62432 429.62432 0 1 0-859.24864 0Z" fill="#FFFFFF" p-id="9484"></path><path d="M405.9648 595.712c43.45856 49.62816 38.46144 125.08672-11.1616 168.54528-49.62816 43.45856-125.08672 38.46144-168.54528-11.1616L405.9648 595.712z" fill="#85049B" p-id="9485"></path><path d="M405.9648 595.712c-43.45856-49.62816-118.92224-54.62528-168.54528-11.1616-49.62816 43.45856-54.62528 118.92224-11.1616 168.54528L405.9648 595.712z" fill="#B800FE" p-id="9486"></path><path d="M515.94752 329.74848c43.45856 49.62816 38.46144 125.08672-11.1616 168.54528-49.62816 43.45856-125.08672 38.46144-168.54528-11.16672l179.70688-157.37856z" fill="#85049B" p-id="9487"></path><path d="M515.94752 329.74848c-43.45856-49.62816-118.92224-54.62528-168.54528-11.1616-49.62816 43.45856-54.62528 118.92224-11.1616 168.54528l179.70688-157.38368z" fill="#B800FE" p-id="9488"></path><path d="M689.33632 568.63232c43.45856 49.62816 38.46144 125.08672-11.1616 168.54528-49.62816 43.45856-125.08672 38.46144-168.54528-11.1616l179.70688-157.38368z" fill="#85049B" p-id="9489"></path><path d="M689.33632 568.63232c-43.45856-49.62816-118.92224-54.62528-168.54528-11.1616-49.62816 43.45856-54.62528 118.92224-11.1616 168.54528l179.70688-157.38368z" fill="#B800FE" p-id="9490"></path><path d="M606.20288 373.16608c34.0992-49.31072 124.62592-45.80352 202.19904 7.8336 77.57312 53.64224 112.81408 137.10336 78.71488 186.41408l-280.91392-194.24768z" fill="#30C03F" p-id="9491"></path><path d="M606.20288 373.16608c-34.0992 49.31072 1.14176 132.77184 78.71488 186.41408s168.09984 57.14944 202.19904 7.8336l-280.91392-194.24768z" fill="#97CF43" p-id="9492"></path><path d="M613.00224 161.15712c36.10624 2.39104 62.336 50.37056 58.57792 107.17184s-36.07552 100.91008-72.18176 98.51904l13.60384-205.69088z" fill="#30C03F" p-id="9493"></path><path d="M613.00224 161.15712c-36.10624-2.39104-68.42368 41.72288-72.18176 98.51904-3.75808 56.80128 22.46656 104.7808 58.57792 107.17184l13.60384-205.69088z" fill="#97CF43" p-id="9494"></path></svg>